<mxfile host="65bd71144e">
    <diagram id="7zyS9fZ8yDYCi-aPbRSP" name="Page-1">
        <mxGraphModel dx="1715" dy="1750" grid="1" gridSize="10" guides="1" tooltips="1" connect="1" arrows="1" fold="1" page="1" pageScale="1" pageWidth="827" pageHeight="1169" math="0" shadow="0">
            <root>
                <mxCell id="0"/>
                <mxCell id="1" parent="0"/>
                <mxCell id="6" value="" style="whiteSpace=wrap;html=1;aspect=fixed;fillColor=#FFFFFF;" vertex="1" parent="1">
                    <mxGeometry x="-370" y="-240" width="1210" height="1210" as="geometry"/>
                </mxCell>
                <mxCell id="15" value="" style="edgeStyle=none;html=1;exitX=0.5;exitY=1;exitDx=0;exitDy=0;entryX=0;entryY=0.25;entryDx=0;entryDy=0;labelBackgroundColor=#FFFFFF;strokeColor=#000000;fontColor=#000000;" edge="1" parent="1" source="2" target="4">
                    <mxGeometry relative="1" as="geometry">
                        <Array as="points">
                            <mxPoint x="170" y="165"/>
                        </Array>
                    </mxGeometry>
                </mxCell>
                <mxCell id="2" value="DNABERT" style="rounded=1;whiteSpace=wrap;html=1;" vertex="1" parent="1">
                    <mxGeometry x="110" y="50" width="120" height="60" as="geometry"/>
                </mxCell>
                <mxCell id="26" style="edgeStyle=none;html=1;exitX=0;exitY=0.25;exitDx=0;exitDy=0;entryX=0.25;entryY=0;entryDx=0;entryDy=0;labelBackgroundColor=#FFFFFF;strokeColor=#000000;fontColor=#FFFFFF;" edge="1" parent="1" source="3" target="4">
                    <mxGeometry relative="1" as="geometry">
                        <Array as="points">
                            <mxPoint x="330" y="55"/>
                        </Array>
                    </mxGeometry>
                </mxCell>
                <mxCell id="3" value="Agent" style="rounded=1;whiteSpace=wrap;html=1;" vertex="1" parent="1">
                    <mxGeometry x="460" y="40" width="120" height="60" as="geometry"/>
                </mxCell>
                <mxCell id="28" style="edgeStyle=none;html=1;exitX=1;exitY=0.75;exitDx=0;exitDy=0;labelBackgroundColor=#FFFFFF;strokeColor=#000000;fontColor=#FFFFFF;" edge="1" parent="1" source="4">
                    <mxGeometry relative="1" as="geometry">
                        <mxPoint x="600" y="195" as="targetPoint"/>
                        <Array as="points"/>
                    </mxGeometry>
                </mxCell>
                <mxCell id="4" value="DNA-Umgebung" style="rounded=1;whiteSpace=wrap;html=1;" vertex="1" parent="1">
                    <mxGeometry x="300" y="150" width="120" height="60" as="geometry"/>
                </mxCell>
                <mxCell id="8" value="" style="endArrow=classic;html=1;labelBackgroundColor=#FFFFFF;strokeColor=#000000;fontColor=#000000;entryX=0;entryY=0.5;entryDx=0;entryDy=0;exitX=0.5;exitY=1;exitDx=0;exitDy=0;" edge="1" parent="1" source="18" target="2">
                    <mxGeometry width="50" height="50" relative="1" as="geometry">
                        <mxPoint x="60" y="130" as="sourcePoint"/>
                        <mxPoint x="500" y="130" as="targetPoint"/>
                        <Array as="points">
                            <mxPoint x="-10" y="80"/>
                        </Array>
                    </mxGeometry>
                </mxCell>
                <mxCell id="11" value="DNA-Sequenz" style="text;html=1;strokeColor=none;fillColor=none;align=center;verticalAlign=middle;whiteSpace=wrap;rounded=0;fontColor=#000000;" vertex="1" parent="1">
                    <mxGeometry x="-190" y="-50" width="100" height="30" as="geometry"/>
                </mxCell>
                <mxCell id="16" value="DNABERT-Hidden-States" style="text;html=1;strokeColor=none;fillColor=none;align=center;verticalAlign=middle;whiteSpace=wrap;rounded=0;fontColor=#000000;" vertex="1" parent="1">
                    <mxGeometry x="180" y="130" width="100" height="30" as="geometry"/>
                </mxCell>
                <mxCell id="17" value="" style="endArrow=classic;html=1;labelBackgroundColor=#FFFFFF;strokeColor=#000000;fontColor=#000000;entryX=0;entryY=0.5;entryDx=0;entryDy=0;exitX=0.5;exitY=1;exitDx=0;exitDy=0;" edge="1" parent="1" source="18" target="4">
                    <mxGeometry x="-0.0003" width="50" height="50" relative="1" as="geometry">
                        <mxPoint x="49.88000000000011" y="130.20000000000005" as="sourcePoint"/>
                        <mxPoint x="190" y="130" as="targetPoint"/>
                        <Array as="points">
                            <mxPoint x="-10" y="180"/>
                            <mxPoint x="160" y="180"/>
                        </Array>
                        <mxPoint as="offset"/>
                    </mxGeometry>
                </mxCell>
                <mxCell id="18" value="&lt;font color=&quot;#ffffff&quot;&gt;Erzeugung zufälliger Basenfehler&lt;/font&gt;" style="rounded=1;whiteSpace=wrap;html=1;fontColor=#000000;fillColor=#000000;" vertex="1" parent="1">
                    <mxGeometry x="-70" y="-40" width="120" height="60" as="geometry"/>
                </mxCell>
                <mxCell id="19" value="" style="endArrow=classic;html=1;labelBackgroundColor=#FFFFFF;strokeColor=#000000;fontColor=#000000;entryX=0;entryY=0.5;entryDx=0;entryDy=0;" edge="1" parent="1">
                    <mxGeometry width="50" height="50" relative="1" as="geometry">
                        <mxPoint x="-200" y="-20" as="sourcePoint"/>
                        <mxPoint x="-70" y="-20" as="targetPoint"/>
                    </mxGeometry>
                </mxCell>
                <mxCell id="20" value="Verfälschte DNA-Sequenz" style="text;html=1;strokeColor=none;fillColor=none;align=center;verticalAlign=middle;whiteSpace=wrap;rounded=0;fontColor=#000000;" vertex="1" parent="1">
                    <mxGeometry y="40" width="90" height="30" as="geometry"/>
                </mxCell>
                <mxCell id="21" value="" style="endArrow=classic;html=1;labelBackgroundColor=#FFFFFF;strokeColor=#000000;fontColor=#000000;entryX=0;entryY=0.75;entryDx=0;entryDy=0;" edge="1" parent="1" target="4">
                    <mxGeometry width="50" height="50" relative="1" as="geometry">
                        <mxPoint x="-200" y="-20" as="sourcePoint"/>
                        <mxPoint x="-70" y="129" as="targetPoint"/>
                        <Array as="points">
                            <mxPoint x="-110" y="-20"/>
                            <mxPoint x="-110" y="195"/>
                        </Array>
                    </mxGeometry>
                </mxCell>
                <mxCell id="23" value="" style="endArrow=classic;html=1;labelBackgroundColor=#FFFFFF;strokeColor=#000000;fontColor=#FFFFFF;exitX=1;exitY=0.25;exitDx=0;exitDy=0;entryX=0.75;entryY=1;entryDx=0;entryDy=0;" edge="1" parent="1" source="4" target="3">
                    <mxGeometry width="50" height="50" relative="1" as="geometry">
                        <mxPoint x="80" y="150" as="sourcePoint"/>
                        <mxPoint x="540" y="100" as="targetPoint"/>
                        <Array as="points">
                            <mxPoint x="480" y="165"/>
                            <mxPoint x="550" y="165"/>
                        </Array>
                    </mxGeometry>
                </mxCell>
                <mxCell id="24" value="Umgebungs-State &amp;amp; Belohnung" style="text;html=1;strokeColor=none;fillColor=none;align=center;verticalAlign=middle;whiteSpace=wrap;rounded=0;fontColor=#000000;" vertex="1" parent="1">
                    <mxGeometry x="430" y="130" width="110" height="30" as="geometry"/>
                </mxCell>
                <mxCell id="27" value="Fehlererkennungs-&amp;nbsp; oder Korrekturaktion&amp;nbsp;" style="text;html=1;strokeColor=none;fillColor=none;align=center;verticalAlign=middle;whiteSpace=wrap;rounded=0;fontColor=#000000;" vertex="1" parent="1">
                    <mxGeometry x="330" y="60" width="130" height="30" as="geometry"/>
                </mxCell>
                <mxCell id="29" value="&lt;b&gt;Korrigierte DNA-Sequenz&lt;/b&gt;" style="text;html=1;strokeColor=none;fillColor=none;align=center;verticalAlign=middle;whiteSpace=wrap;rounded=0;fontColor=#000000;" vertex="1" parent="1">
                    <mxGeometry x="430" y="170" width="150" height="30" as="geometry"/>
                </mxCell>
            </root>
        </mxGraphModel>
    </diagram>
</mxfile>